<svg width="22" height="23" viewBox="0 0 22 23" fill="none" xmlns="http://www.w3.org/2000/svg">
<path fill-rule="evenodd" clip-rule="evenodd" d="M11.435 1.49037C13.4221 -0.496789 16.6439 -0.496789 18.6311 1.49037C20.558 3.4173 20.6164 6.50521 18.8059 8.50286L18.6307 8.68688L9.27253 18.0349C8.08033 19.2271 6.14738 19.2271 4.95518 18.0349C3.81066 16.8903 3.76488 15.0632 4.81821 13.8637L4.9556 13.7171L13.5919 5.09095C13.9894 4.69393 14.6335 4.69431 15.0305 5.0918C15.397 5.45871 15.4248 6.03573 15.1143 6.4346L15.0296 6.53038L6.39376 15.1561C5.99607 15.5538 5.99607 16.1986 6.39376 16.5963C6.76087 16.9634 7.33851 16.9916 7.73832 16.6807L7.83434 16.5959L17.1925 7.24791C18.3851 6.05526 18.3851 4.1216 17.1925 2.92895C16.0476 1.78401 14.2197 1.73821 13.0201 2.79156L12.8735 2.92895L3.52516 12.2773C1.53757 14.2649 1.53757 17.4875 3.52516 19.475C5.45253 21.4024 8.54112 21.4608 10.5389 19.6503L10.7229 19.475L20.0713 10.1267C20.4685 9.72942 21.1126 9.72942 21.5098 10.1267C21.8765 10.4934 21.9048 11.0704 21.5945 11.4694L21.5098 11.5653L12.1615 20.9136C9.37937 23.6957 4.86868 23.6957 2.08658 20.9136C-0.632297 18.1948 -0.694089 13.825 1.9012 11.0311L2.08658 10.8387L11.435 1.49037Z" fill="#6D5DD3"/>
</svg>
