<?xml version="1.0" standalone="no"?>
<!DOCTYPE svg PUBLIC "-//W3C//DTD SVG 20010904//EN"
 "http://www.w3.org/TR/2001/REC-SVG-20010904/DTD/svg10.dtd">
<svg version="1.0" xmlns="http://www.w3.org/2000/svg"
 width="331.000000pt" height="383.000000pt" viewBox="0 0 331.000000 383.000000"
 preserveAspectRatio="xMidYMid meet">
<metadata>
Created by potrace 1.16, written by Peter Selinger 2001-2019
</metadata>
<g transform="translate(0.000000,383.000000) scale(0.100000,-0.100000)"
fill="#2D4059" stroke="none">
<path d="M1005 3755 c-157 -28 -326 -98 -458 -187 -81 -55 -243 -216 -296
-296 -60 -90 -116 -207 -148 -309 l-27 -88 -4 -442 c-2 -244 0 -443 4 -443 7
0 39 24 424 315 170 129 356 276 533 423 29 23 77 52 107 64 54 22 68 23 610
29 580 7 581 7 735 54 80 24 264 120 340 177 159 118 295 286 369 453 38 87
87 245 79 258 -2 4 -498 7 -1101 6 -846 -1 -1113 -4 -1167 -14z"/>
</g>
<g transform="translate(0.000000,383.000000) scale(0.100000,-0.100000)"
fill="#F76B1C" stroke="none">
<path d="M1075 2433 c-224 -28 -409 -103 -660 -269 -135 -89 -235 -190 -288
-292 -68 -129 -67 -108 -67 -999 l0 -803 138 0 c102 0 158 5 219 20 253 61
458 249 540 495 26 78 27 90 34 405 8 356 10 369 69 445 43 54 125 94 219 106
36 4 237 9 446 9 210 0 409 5 445 10 83 14 216 54 289 88 269 125 523 410 631
710 20 54 21 65 9 73 -13 8 -1957 11 -2024 2z"/>
</g>
</svg>
